<svg width="24" height="24" viewBox="0 0 24 24" fill="none" xmlns="http://www.w3.org/2000/svg">
<path d="M12.24 10.42V14.7H18.42C18.15 16.32 17.06 17.65 15.61 18.57C14.16 19.49 12.44 20 10.5 20C7.26 20 4.54 18.06 3.19 15.01C1.84 11.96 1.84 8.04 3.19 4.99C4.54 1.94 7.26 0 10.5 0C12.79 0 14.67 0.88 16.03 2.22L12.98 5.27C12.91 5.2 12.83 5.14 12.75 5.09C12.48 4.95 12.23 4.85 11.97 4.79C11.5 4.67 10.96 4.62 10.42 4.62C8.24 4.62 6.42 5.92 5.51 7.82C4.61 9.72 4.61 12.28 5.51 14.18C6.42 16.08 8.24 17.38 10.42 17.38C11.97 17.38 13.04 16.73 13.88 15.93C14.51 15.34 14.99 14.49 15.22 13.62H10.5V10.42H12.24Z" fill="#4285F4"/>
<path d="M12.24 10.42V14.7H18.42C18.15 16.32 17.06 17.65 15.61 18.57C14.16 19.49 12.44 20 10.5 20C7.26 20 4.54 18.06 3.19 15.01C1.84 11.96 1.84 8.04 3.19 4.99C4.54 1.94 7.26 0 10.5 0C12.79 0 14.67 0.88 16.03 2.22L12.98 5.27C12.91 5.2 12.83 5.14 12.75 5.09C12.48 4.95 12.23 4.85 11.97 4.79C11.5 4.67 10.96 4.62 10.42 4.62C8.24 4.62 6.42 5.92 5.51 7.82C4.61 9.72 4.61 12.28 5.51 14.18C6.42 16.08 8.24 17.38 10.42 17.38C11.97 17.38 13.04 16.73 13.88 15.93C14.51 15.34 14.99 14.49 15.22 13.62H10.5V10.42H12.24Z" fill="#4285F4"/>
<path d="M10.42 17.38C8.24 17.38 6.42 16.08 5.51 14.18C4.61 12.28 4.61 9.72 5.51 7.82C6.42 5.92 8.24 4.62 10.42 4.62C11.97 4.62 13.04 5.27 13.88 6.07L16.03 3.92C14.67 2.58 12.79 1.7 10.5 1.7C7.26 1.7 4.54 3.64 3.19 6.69C1.84 9.74 1.84 13.26 3.19 16.31C4.54 19.36 7.26 21.3 10.5 21.3C12.44 21.3 14.16 20.81 15.61 19.89C17.06 18.97 18.15 17.64 18.42 16.02H10.5V10.42H18.42C18.5 10.96 18.54 11.53 18.54 12.12C18.54 13.29 18.35 14.42 17.96 15.48C17.57 16.54 16.98 17.48 16.24 18.25C14.9 19.64 13.04 20.5 10.5 20.5C7.79 20.5 5.34 19.06 3.99 16.89C2.65 14.72 2.65 10.28 3.99 8.11C5.34 5.94 7.79 4.5 10.5 4.5C11.97 4.5 13.04 4.99 13.88 5.79L16.03 3.64C14.67 2.3 12.79 1.42 10.5 1.42C7.26 1.42 4.54 3.36 3.19 6.41C1.84 9.46 1.84 13.54 3.19 16.59C4.54 19.64 7.26 21.58 10.5 21.58C12.44 21.58 14.16 21.09 15.61 20.17C17.06 19.25 18.15 17.92 18.42 16.3H10.5V10.42Z" fill="#FBBC04"/>
<path d="M10.5 0C12.79 0 14.67 0.88 16.03 2.22L12.98 5.27C12.91 5.2 12.83 5.14 12.75 5.09C12.48 4.95 12.23 4.85 11.97 4.79C11.5 4.67 10.96 4.62 10.42 4.62C8.24 4.62 6.42 5.92 5.51 7.82C4.61 9.72 4.61 12.28 5.51 14.18C6.42 16.08 8.24 17.38 10.42 17.38C11.97 17.38 13.04 16.73 13.88 15.93C14.51 15.34 14.99 14.49 15.22 13.62H10.5V10.42H18.42C18.5 10.96 18.54 11.53 18.54 12.12C18.54 13.29 18.35 14.42 17.96 15.48C17.57 16.54 16.98 17.48 16.24 18.25C14.9 19.64 13.04 20.5 10.5 20.5C7.79 20.5 5.34 19.06 3.99 16.89C2.65 14.72 2.65 10.28 3.99 8.11C5.34 5.94 7.79 4.5 10.5 4.5C11.97 4.5 13.04 4.99 13.88 5.79L16.03 3.64C14.67 2.3 12.79 1.42 10.5 1.42C7.26 1.42 4.54 3.36 3.19 6.41C1.84 9.46 1.84 13.54 3.19 16.59C4.54 19.64 7.26 21.58 10.5 21.58C12.44 21.58 14.16 21.09 15.61 20.17C17.06 19.25 18.15 17.92 18.42 16.3H10.5V10.42Z" fill="#34A853"/>
<path d="M10.42 4.62C10.96 4.62 11.5 4.67 11.97 4.79C12.23 4.85 12.48 4.95 12.75 5.09C12.83 5.14 12.91 5.2 12.98 5.27L16.03 2.22C14.67 0.88 12.79 0 10.5 0C7.26 0 4.54 1.94 3.19 4.99C1.84 8.04 1.84 11.96 3.19 15.01C4.54 18.06 7.26 20 10.5 20C12.44 20 14.16 19.49 15.61 18.57C17.06 17.65 18.15 16.32 18.42 14.7H10.5V10.42H18.42C18.5 10.96 18.54 11.53 18.54 12.12C18.54 13.29 18.35 14.42 17.96 15.48C17.57 16.54 16.98 17.48 16.24 18.25C14.9 19.64 13.04 20.5 10.5 20.5C7.79 20.5 5.34 19.06 3.99 16.89C2.65 14.72 2.65 10.28 3.99 8.11C5.34 5.94 7.79 4.5 10.5 4.5C11.97 4.5 13.04 4.99 13.88 5.79L16.03 3.64C14.67 2.3 12.79 1.42 10.5 1.42C7.26 1.42 4.54 3.36 3.19 6.41C1.84 9.46 1.84 13.54 3.19 16.59C4.54 19.64 7.26 21.58 10.5 21.58C12.44 21.58 14.16 21.09 15.61 20.17C17.06 19.25 18.15 17.92 18.42 16.3H10.5V10.42Z" fill="#3367D6"/>
</svg>